<svg id="Lag_1" data-name="Lag 1" xmlns="http://www.w3.org/2000/svg" width="2495.4" height="2520.52" viewBox="0 0 2495.4 2520.52"><defs><style>.cls-1,.cls-3{fill:#fff8df;stroke:#e9e2cd;stroke-width:5px;}.cls-1{stroke-miterlimit:10;}.cls-2{fill:#324194;}.cls-3{stroke-linecap:round;stroke-linejoin:round;}</style></defs><circle class="cls-1" cx="1247.7" cy="1252.12" r="1210.4"/><path class="cls-2" d="M93.91,1209.86c.29-110.09,19-224.72,68.91-324.31,21.83-43.52,53.69-95.78,101.74-114.13A79.79,79.79,0,0,1,317,769.84c15.95,4.95,29.07,19.06,41.52,29.59,13.74,11.63,28.84,24.61,46.68,29.12,16,4.05,31.11-.64,44.87-8.83,7.11-4.23,18-14.92,26.52-12.82,12.37,3,6.61,32.4,5.37,41-3.55,24.43-9.26,48.65-15.28,72.53-11.65,46.2-31.5,125.86-94.51,118-37.92-4.72-63.73-43.37-83.31-72.29-10.77-15.89-20.81-32.38-32.77-47.42-9.94-12.52-22.21-25.74-38.46-29.31-38.62-8.46-59.08,53.53-64.79,79.5-10.85,49.31-3.74,103.51,29.61,143.9,24,29,60.09,49.33,97.76,51.7,22.57,1.41,43.4-6.58,61.75-19.35,8.6-6,21.46-21,32.62-20.42,12.81.65,10.35,22.91,10,31-1.74,44.53-.79,90.88-8.41,135.19-3.46,20.16-11,48.54-36.15,49-17.47.35-31.86-13.28-42.38-25.74-14.34-17-25.43-36.62-36.45-55.84-17.54-30.64-42.62-85-82.76-88.28-16.34-1.33-27.33,14.89-32.68,28.42-10.13,25.62-11.1,54.7-9.62,81.67,3,54.09,20.59,109.71,53.37,153.66,25.22,33.82,64.07,63.89,108.58,59.09,41.92-4.53,69.36-33.47,87.66-69.34,7.1-13.93,12.76-28.53,19.89-42.44,3.74-7.3,9.68-19.92,19.16-20.09,8.66-.16,13.81,10.84,16.77,17.59,7.42,16.93,10.77,35.91,14,53.89,9.28,51.37,13,107.76-5.22,158-12.46,34.35-37.29,64.67-74.22,72.68a141.86,141.86,0,0,1-77.43-4.68c-60.21-21.31-103.36-77.11-132.8-131.26C113.46,1430.84,93.63,1318.28,93.91,1209.86Z"/><path class="cls-2" d="M645.47,1031.08c-34.83-3.88-55.61,40.91-65.52,67.31-16,42.73-22.55,89.77-22,135.25.78,65.24,29.47,129.79,57.82,187.3,14.26,28.91,29.86,57.12,45,85.58,10.83,20.39,23,41.55,28.88,63.7,2.65,10,7.39,33.32-8.49,35.38-26.1,3.38-53.54,1.36-79.55,5.1-20.55,3-39.83,12.17-60.3,15.54-16.33,2.69-25.76-19.12-30-30.87-18.75-52-11.42-112.88-3-166.89,8.87-57.11,25.89-115.52,23.87-173.34-2.23-64-18.3-126.53-33.29-188.85-10.42-43.33-26.35-95-15-138.52,3.28-12.6,12.58-32.24,29.24-29.21,29.62,5.4,50.52,27.36,69,49.44,14.79,17.65,31.37,41.35,56.12,44.47,63.34,8,104.83-62.74,167.77-54.74,43,5.47,45.94,47.82,46.52,83.43.19,12,3.64,28.4,18.56,29.33,13.76.86,27.51-7.59,38.83-14.36,18-10.72,35-23,52.55-34.3,35-22.52,76.44-46.79,119.64-44.08,18.14,1.13,36.44,6.76,47.29,22.3,13.25,19,13.62,45.29,12.59,67.41-1.54,33-13.23,65.18-22.38,96.63-10.91,37.51-20.54,75.79-21,114.73-.8,73.47,9.89,149.61,43.45,216.47,8.25,16.43,18,31.93,28,47.3,5,7.59,12.84,17,13.21,26.39.42,10.68-8.35,16.26-17.55,19.29-18.91,6.23-40.61,5.92-60.23,6.38-31.21.73-65.75-1.93-92.61-19.63-24.9-16.4-36.8-44.18-39.72-73-5.78-57.08,16.94-111.09,44.77-159.64,12.33-21.51,25.84-42.36,37.4-64.3,9.33-17.73,18.3-37.27,18.68-57.65.6-31.84-25.44-58.4-49.57-75.56-33.92-24.1-75.16-37.52-116.24-40.28-76-5.11-90.72,102-90.7,156.82,0,59.47,28.21,118.85,53.68,171.31,12.54,25.82,26,51.16,38.57,77,9.22,18.95,19.52,39.08,22.93,60.07,1.95,12-.3,31.85-16.27,32.52-26.05,1.09-53.34-1.17-79.44,1.07-21.56,1.85-42.57,9.21-64.25,11.5-14.35,1.51-22.08-13.61-25.21-24.84-13.5-48.45-.42-104.48,10.74-153.45,12.63-55.42,30.94-112.31,30.39-169.53-.48-49.64-23.38-99.41-50.9-139.85C717.1,1076.73,685,1035.5,645.47,1031.08Z"/><path class="cls-2" d="M1431.87,1068.93c-35.22.52-56,35.57-67.49,64.77-14.68,37.28-21.4,78.5-22.55,118.41-1.62,55.91,24.19,112.48,43.66,163.68,9.53,25.06,19.26,50.13,26.81,75.88,5.52,18.83,11.26,39.71,8.79,59.5-1.59,12.76-9.41,29-24.67,27.83-30.23-2.34-61.24-7.76-91.78-8.79-26.12-.89-52.39,3.23-78.51,2.92-15.07-.18-22.84-12.9-22.64-26.91.65-46,29.93-91.81,51-131.26,23.37-43.66,54.18-93.59,54.83-144.19.71-56.36-21.75-109.23-48.27-158.46-11.32-21-23.67-41.53-34-63-7-14.64-14.16-31.12-14-47.53.19-15.54,13.06-26.62,28.25-26.39,35.93.54,68.26,13,99.13,30.52,23.31,13.21,48,30.66,75.92,30.21,34.17-.56,62.13-17.12,88.6-37.15,23.59-17.86,47.59-36.61,78.24-38.61,14.77-1,29.38,1.7,40.38,12.31,15.95,15.38,21.07,40.07,25.28,60.55,2.4,11.66,8.33,27.72,23.1,26.78,13.64-.87,25.71-11.43,35.43-20.11,14.81-13.23,28-28.22,41.45-42.8,24.77-26.88,54.41-63,92.79-68.17,51.58-6.93,65.72,54.8,70.88,93.92,4.94,37.44-.76,76.19-6.33,113.42-6.52,43.61-14.47,87.17-17,131.12-4.68,82.52-9,166.12-2.39,248.91,1.58,19.69,4.11,39.25,6.24,58.88,1.12,10.4,3.15,22.47-.38,32.62-10.67,30.6-51.89,22.46-76.16,18.53-26.32-4.26-55.12-13.91-71.09-36.85-16.74-24.06-14.23-55.8-8.38-83,13.12-61,44.31-115.52,75.85-168.67,23.9-40.27,56.2-86.52,56.67-135.2.32-32.83-21.15-61.81-46.63-80.51-31.91-23.41-71.73-33.25-110.64-31.73-71.95,2.81-81.4,111.6-83.7,164.21-2.51,57.65,17.38,116.11,30.66,171.58,6.4,26.75,12.49,53.68,16,81,2.67,20.87,4.66,43.36-.63,64-3.3,12.85-13.47,32-29.57,29.72-25.54-3.6-51.21-11-76.86-13.5-23-2.28-46.77.72-69.86-1.28-13.5-1.17-17.14-14.33-15.25-26,7.93-48.87,38.39-94.59,60.63-138.19,25.34-49.68,52.71-104.62,55.09-161.25,2-48.48-23.77-96.63-55.84-131.51C1515.32,1099,1474.55,1068.31,1431.87,1068.93Z"/><path class="cls-2" d="M2288,906.09c11.4,41.12,16,84.64,19.56,127,4.42,53,4.65,106,5.44,159.08,1.51,101,.17,202.24-12.42,302.56-4.79,38.19-11.13,76.25-20,113.72-5.74,24.19-12,49-22.31,71.68-4.33,9.51-18.34,34.28-30.09,32-16.69-3.18-36.17-13.58-53.5-17.26-14.75-3.13-31.91-3.79-47.4-7.43-22.79-5.35-8.15-35.25-2.73-48.55,10.71-26.27,26.5-50.75,41-75.18,19.2-32.37,38.12-64.92,54.9-98.63,39.54-79.41,69-166.91,68.57-256-.27-61.06-22-122.08-65.7-166.06-27.27-27.44-68.39-53.61-108.93-48.5-24.22,3.06-28.81,27.82-30.87,48.37-2.67,26.56-2,53.48-1.93,80.13.12,46.41-.07,92.88-2.41,139.16-2.28,44.86-6.42,89.72-10.5,134.53-2.39,26.2-5.21,52.64-4.74,79,.35,20,2.47,49.18,27.39,52.42,19.49,2.54,34.7-10.32,45.25-25.38,19.11-27.27,28.37-61.36,35.9-93.3,6.28-26.68,10.92-54.17,19.25-80.34,2.85-9,7.77-25.46,19.62-25.07,15.75.53,13.18,29.12,12.15,38.82-8.23,77.26-49.31,155-96,216.92-22.74,30.16-48.84,58.88-79.62,81-18,13-43.26,29-66.71,23.94-27.12-5.81-35.45-29.69-35.69-55-.21-21.45,3.47-42.92,7.29-63.95,5.69-31.22,12.62-62.23,19-93.28,21-101.84,37.26-204.62,55.76-307,7.38-40.79,15.16-81.62,25.86-121.69,8-29.73,17.34-60,33-86.67,12.78-21.75,31.35-41.71,56.87-46.61,24.25-4.67,50.3-3.77,74-9.19,13.17-3,25.14-11.6,38.42-14.57C2275.08,862.55,2284.29,892.7,2288,906.09Z"/><path class="cls-2" d="M542.26,386.47c24.07-15.41,43.21-38.06,67.39-53.58,8.86-5.68,12.11-2,10.23,7.55-3.42,17.38-13.09,34.41-21.24,49.79a421.65,421.65,0,0,1-74.73,101.46c-16.23,16.16-40.78,31.77-50.45,52-3.23,6.75-3.67,13.85,6.37,13.54,14-.44,27.77,5.3,31.15,20.91,6.11,28.25-8.85,62.64-18.12,88.36-12.26,34-24.89,70.91-46.78,100.37-11.61,15.61-28.7,29.84-49.26,23.56-24.93-7.61-44-30.33-68.84-37.33-12.08-3.41-24.55-4-37.34-3.55-8.93.27-18.53,1.18-27.07-1.47-8.06-2.51-3.58-12.67-1.31-17.42,5.34-11.17,14.1-21.58,21.71-31.71,13.47-18,27.38-35.6,41.21-53.28,31.12-39.77,62.7-79.36,91.87-120.54,16.68-23.54,32.44-47.69,48.23-71.86,7.15-11,14.76-21.14,24.13-30.32A234.43,234.43,0,0,1,507,407.12C517.63,398.59,530.84,393.78,542.26,386.47ZM366.08,607.78c-13.24,22.37-23.63,47.91-26.46,73.94C337.09,705,342.16,735,368.7,741.46c35.64,8.72,56.15-49,65.77-72.54,9.42-23,49.32-118.18-8.38-110.11C399.26,562.56,379.13,585.75,366.08,607.78Zm99.86-137.47c-10.45,13.94-20.94,29.29-26.37,46-3.68,11.34-3.47,26.42,12.75,23.43,11.26-2.08,20.41-11.59,27.53-19.91,12.68-14.84,22.77-31.9,32.51-48.7,12.16-20.95,25.92-42.5,34.53-65.34,3.22-8.52,3.55-16.37-7.32-9.77C510.81,413.51,486,443.48,465.94,470.31Z"/><path class="cls-2" d="M776.64,361.59C760.33,417,735.12,470.92,719.82,527.25c-16,58.85-25.08,119.43-30.72,180.21-3.78,40.71-2.83,83.4-10.8,123.36-1.39,7-7,24-14.92,23.36-11.76-.94-26.68-8.21-39.23-10.39-9.81-1.71-21.41-1.84-31.62-4-15-3.21-9.21-24.3-6.86-34.27,9.53-40.49,34.49-78.76,53.41-115.83,25-49,49.74-99.53,64.14-152.48,8.06-29.64,12.39-64.6-.41-93.89-6.6-15.11-20.37-29.15-38.22-25-13.45,3.12-21.63,18.17-27.85,29.15C614.88,486,599.65,528.9,585,570.45,570.63,611,554.67,654,550.74,697.26c-1,10.8-2.34,31.48,12.48,33.63,11.63,1.7,20.24-7.92,26.07-16.7,11.65-17.59,18.28-38.84,25-58.58,5.49-16.16,10.77-32.86,18.36-48.24,2.68-5.42,7.33-15.09,13.75-14.85,8.09.3,3.56,18.13,2.35,22.65-12.62,47.43-38.45,94.51-65,136.39-12.65,19.91-26.46,39.84-43.57,56.23C531,816.49,517,829,503.21,825.46,485.8,821,482.46,801.52,482.58,786c.25-35,12.31-70.47,23.43-103.12a1005.93,1005.93,0,0,1,104.37-217c16.33-25.52,33.82-50.61,54-73.29,12.72-14.3,28.37-31.74,47.14-37.08,12.16-3.46,25.21-4.37,37.56-7.54,8.41-2.17,16.13-7,24.16-9.44C784.65,335,777.7,358,776.64,361.59Z"/><path class="cls-2" d="M848.45,405.54c-12.42,1.53-19.43,16.06-24,26-12.48,27.22-19.22,57.36-25.79,86.34-12.79,56.41-27.26,121-15.13,179,4.91,23.52,17.55,47.83,44,50.41,27,2.63,45.89-24,58-44.33,6.28-10.53,11.64-21.54,17.41-32.34,2.55-4.76,6.81-15,11.76-15.38,6.38-.47,4.16,17.05,3.61,21.32-6.25,48.2-19.16,97.82-39.78,142.43C864.29,849.79,837.66,897,797,890.24c-45-7.47-66.73-49.79-73.9-91.09-9.54-54.95-.94-113,11.44-166.68C751.74,558,781.13,486.3,816,418.32c12.57-24.53,25.88-48.85,41.13-71.83,6.24-9.4,16.58-29,28.24-31.44,14.41-3.05,31.51.24,46.49-2,12.61-1.89,23.21-13.08,34.92-15,9-1.44,5.57,19.35,4.92,23.51-5.17,33-14.41,66.51-25.41,98.54-4.47,13-9.26,26.2-15.73,38.41-2.53,4.77-6.88,14.13-12.49,14.66-12.57,1.21-22.93-26.14-28.45-35.76C880.93,422.28,868.65,403.05,848.45,405.54Z"/><path class="cls-2" d="M1026.63,878.8c-.67,7.32-2.18,30-14.05,28.59-12.84-1.58-26.07-6.34-39.35-7.84-16.24-1.83-33.19,0-49.16-2.11-15.12-2-11.71-31.61-10.62-41.36,1.7-15.1,7.89-30.21,13.08-44.58,8.35-23.14,17.27-46.07,25.64-69.2,19-52.38,37-106.46,43.47-162,9-76.93,10.09-154.31,6.74-231.66-1.06-24.55-2.61-49.09-3.48-73.65-.56-15.7,8.85-26.81,27.06-42.87,10.52-9.28,19-20.54,27.11-31.92,4.15-5.79,10-17.26,16.52-18.4,6.78-1.18,5.16,16.46,4.73,20.26-3.58,31.83-12.77,64.21-19.81,95.94-8.93,40.29-7.8,21.86-12.16,62.29-.4,3.69-1.72,16.64,3.1,16.59,6.85-.07,15.35-14.78,19.76-21,9.58-13.58,18.44-27.65,27.69-41.45,9.61-14.34,19.4-28.73,30.78-41.74,7.83-8.95,18.5-21,31.27-21.85,31-2.08,24.17,61.62,23.35,78.07-2,39.08-8.63,78-14.65,116.74-7.45,47.87-14.15,95.91-16.9,144.18-3.93,68.86-3,138.89,10.44,206.94,3.56,18,8.21,35.67,12.73,53.43,2.89,11.33,6.19,23.15,5.76,35-.39,10.67-2.89,22.31-12,29-10.05,7.36-24.59,7.26-36.38,6.45-59.73-4.06-60.84-78.8-57.58-122.94,4.22-57.15,19.54-112.49,37.72-167,13.67-41,30.46-83.08,32.85-126.19,1.57-28.27-3.43-57.9-16.87-83.4-8.37-15.88-22.91-35.27-42.71-34.62-22.12.74-34,24.38-41.06,42.52-18.58,47.7-24.39,101.25-30,151.53-6.38,57.22-2.5,115.14,4.45,172.35,2.92,24.07,6.47,48,9.39,72.12C1025.64,842.68,1028.24,861.13,1026.63,878.8Z"/><path class="cls-2" d="M1311.12,383.56c-9.7-.16-15.39,11.54-18.69,19.06-6.29,14.38-9.55,30.23-12.33,45.6-6.92,38.32-9.94,77.7-10.16,116.58-.32,56.64,13.33,113.48,25.64,168.48,11.33,50.63,28.31,104.06,28.19,155.82,0,8.56,0,36.67-12.91,36.87-18.36.28-38.31-6.61-57.17-7.19-15.53-.48-31.57,5.47-47,4.59-13.53-.76-12.53-26.22-12.32-34.91,2.45-103,59.08-201,59.78-305.05.35-52.75-9.66-104.87-21.24-156.36-8.32-37-20.61-76.31-18.82-113.87.36-7.64,1.75-28.63,12.68-29.24,18.56-1,32.57,18.29,42.7,32.3,7.86,10.86,19,32.72,34.29,33.12,19.34.5,31.45-20.82,40.38-35.16,7.68-12.33,18.34-35.07,35.74-34.24,9.65.46,15.4,8.36,19.18,16.43,8.88,19,10.81,42,13.71,62.09,1,7,2.87,27.12,12.19,27.49,7.16.29,13.12-10.74,16.48-16.31,7-11.61,12.58-24,18.67-36.12,7.59-15.07,22-51.44,44-49,12,1.34,18.94,13.1,23.37,23,9.54,21.4,13.09,45.6,16.38,68.56,9.6,66.93,1.65,135.73,9,202.79,8.15,74.26,20.25,149.2,43.22,220.75,5.89,18.33,12.69,36.31,19.66,54.25,3.77,9.71,8.46,19.87,9.54,30.33,2.67,26-19.34,32.65-41.27,34.18-60.43,4.24-75.26-63.08-78.49-110-3.87-56.13,3.68-111.92,15-167.17,7.78-38,18.87-77.9,14.67-117-4.63-43-40.62-104.4-89-107-19.71-1.07-25.54,30.6-28,44.38-6.27,34.44-5.77,70.28-3.91,105,3,56.16,19,111.94,33.48,166.18,13.18,49.54,31.66,101.49,33.93,152.51.38,8.5,1.56,37.58-11.59,38.25-16.32.84-34.18-4.89-50.75-4.56-14.41.28-29.38,7.16-43.84,6.88-12.07-.23-12.68-22.78-12.91-30.68-1.58-53.24,11.17-107.92,20.37-160.83,9.26-53.23,19.09-107.88,16.43-162.1-2.12-43.33-15.59-86.86-34.26-125.83-7.68-16-16.47-32.07-28-45.67C1330.69,393.35,1321.65,383.74,1311.12,383.56Z"/><path class="cls-2" d="M1748.85,361.72c16.08,57.19,22.35,117,36,174.68,15.37,64.8,35.52,128.5,56.73,191.68,13.7,40.81,32,82.49,39.69,124.81,1.31,7.16,2.32,25.58-5.38,27.87-11.64,3.46-28.88,1.76-41.8,4.25-10.52,2-22,6.22-33.18,8.1-17.14,2.87-19.49-23.34-21.18-34.44-7-45.75,1.08-94.77,3.24-141,2.69-57.4,2.33-115.77-10.43-172-9.35-41.22-29.86-80-56.7-112.52-15.65-19-39.28-45.9-65.17-49.63-15.43-2.23-14.38,20.95-14.22,30.54.87,54.15,12.46,108.94,20.91,162.21,8.8,55.38,15.68,113.25,33.61,166.67,4.45,13.28,12.67,39.14,30.94,37.86,13.29-.93,18.24-14.53,20.18-25.83,4.06-23.69.52-48.93-2.37-72.49-.91-7.41-13.71-76.73,1.45-76,9.52.46,13.35,18.85,14.75,26.42,10,53.76,6.59,112.39-2.13,166.31-4.31,26.63-10.2,53.65-20.87,78.53-5.87,13.66-15.83,35.21-32.81,37.18-22.81,2.65-35-21.78-41.78-39.7-16.89-44.78-21.73-94.75-27.38-141.85-12-99.64-20.85-201.65-15.23-302.19,1.62-29,3.56-60.17,14.38-87.43,5.69-14.32,16.31-29.57,33.6-26,14.38,3,28.56,9.81,42.64,12.33,7.22,1.29,15.68-.39,22.91,1.43C1741,334.43,1746,351.54,1748.85,361.72Z"/><path class="cls-2" d="M1866,412.81c25.52,6.48,20-44.45,42.45-35.08,9,3.74,16.44,11.58,22.36,19.37,13.68,18,23.75,38.8,33,59.2,21.44,47,30.14,99.63,47.66,148.09,18.47,51.1,38.55,102.59,66.26,149.71,6.81,11.6,14.26,22.77,21.74,33.94,4.36,6.49,9.27,13.23,11.58,20.77,6.32,20.7-8,30.22-26.46,34.4-46.14,10.46-65.63-41.51-75-76.73-10.91-41-14.75-83.24-15.72-125.87-.65-28.51-.2-58.1-10.33-85.17-9.85-26.28-28-50.16-46.53-70.94-14.86-16.63-34.48-38.75-57.27-43.95-27.56-6.3,4.56,112.49,7.66,123.2,15.08,52,37,102.08,59.5,151.43,17.23,37.87,38,76.59,47.68,117.12,1.84,7.7,5.18,28-5.3,30.23-11.54,2.43-25.39,0-37.3,2-12.49,2.08-24.91,10.33-37.4,11.94-11,1.42-15-21-16.48-28.2-16.68-82.74,7.25-172-15.48-255-12.25-44.75-33.33-86.55-54.81-127.47-16.45-31.34-36.58-63.22-46.48-96.88-.79-2.69-7.79-25.12,2.18-22.32,17.71,5,32.2,21.58,44.58,34.5C1838.54,391.91,1850.94,409,1866,412.81Z"/><path class="cls-2" d="M2049.4,469c8.66,2.86,13.06.62,15.94-8.38,2.67-8.36,5.13-9.22,13.2-5.1,23.29,11.87,42.51,38.26,58.79,59.05,24.52,31.32,40.57,68.88,60.83,102.91,22,37,44.53,74.54,72.24,107.82,10.2,12.24,26.16,24,33.11,38.53,7.65,15.94-6,23.41-19.72,27.4-37.19,10.83-58.49-25.51-70.57-54.4-12.59-30.12-20.11-61.85-25.85-94.19-3.74-21.12-7.49-42.52-19-61-12.62-20.28-31.09-37.55-48.86-53.32-15.93-14.14-34.74-30.51-54.47-38-13.52-5.15-5.46,21.11-4.06,25.76,6.72,22.32,16.39,43.95,26.26,65,19.19,40.84,43.08,79.48,67.17,117.66,18.11,28.7,40.57,58.22,51.28,90,1.86,5.52,7,21.7-2.29,24.25-10.38,2.85-21.8,1.43-32.17,4.09-10.91,2.81-21,9.89-31.69,12.24-9.35,2.05-14.53-15.78-16.5-22.09-20.37-65.11-8.31-139.64-36.67-203.79-16-36.25-39.32-68.93-62.35-101-18.19-25.32-39.16-50.54-52.82-78.13-.43-.88-10-19.63-1.3-15.94,16.24,6.87,29.91,20.57,42.87,32.29C2023.79,450.56,2035.93,464.58,2049.4,469Z"/><path class="cls-2" d="M378.26,1747.31c-4.84,9.51-10.16,18.73-13.82,28.8-12.79,35.21-.73,69.79,17.53,100.44a314.31,314.31,0,0,0,45.36,58.55c14.07,14.37,30.6,29.25,49.52,36.41,35.18,13.31,10-42.22,4.31-54.07a529.32,529.32,0,0,0-41.64-72.64c-9.16-13.26-20.07-26.17-26.5-41-9.45-21.78,16.87-26.21,32.42-27,21.56-1,44.36,3.78,52.17,26.57,4.41,12.89,7.16,26.32,10.59,39.5a534.41,534.41,0,0,0,20.45,62c17.68,44.75,46.3,99.83,97,113.06,46.57,12.16,21.77-85.07,16.9-101.7-16.36-55.9-55.36-99.57-102.8-132.28-18.06-12.46-37.19-23.19-55.54-35.18-11.11-7.26-25.43-16.16-29.81-29.49-2.85-8.66-1.28-18.43,9.41-19.39,15.27-1.35,30.72,2.85,46.17,1.2,18.89-2,36.09-12.62,55-14.67,51.63-5.59,75.57,68.47,84.78,106.54,12.73,52.66,13.87,107.13,17.58,161.14,4.57,66.48,16.42,131.08,37.57,194.36,3.77,11.35,8.64,23.4,9.68,35.44.36,4.12-.36,11.39-6.6,7.64-18.12-10.87-35.57-29-49.66-46-32.79-39.52-60.48-83.14-87.65-126.61-11-17.59-21.7-35.41-33.48-52.49-5.25-7.62-13-21.87-22.28-24-13.69-3.14,9.06,77.81,11.2,84.64,4.82,15.34,11.71,31,14.44,46.88,2,11.51-5.19,7.31-11.77,2.08-8.71-6.91-16.34-15.25-23.58-23.64-18.69-21.68-36.14-44.5-53.32-67.4-41.75-55.66-84-111.08-131.14-162.36-15.72-17.08-32-33.62-48.3-50.12-8.52-8.61-18.68-17.42-24.86-27.9-4.1-7-3.53-14.6,5.78-15.74,17.55-2.14,36.15-.92,53.7-3.39,19.94-2.79,39.41-10.8,59.58-13.67"/><path class="cls-2" d="M897.69,2246.48c1,4.29,4.66,22.54-6.12,18.45-12-4.56-24.47-10.16-36.89-14.42-14.92-5.11-30.69-8.86-45.39-14.6-11.19-4.36-17.46-16.3-21-27.12-6.84-20.92-.88-47.1,1.16-68.44,3.41-35.66,5-71.73-3.19-106.67-11.94-50.77-37.9-98.3-65.16-142.68-11.53-18.77-23.74-37.11-35.42-55.79-7.17-11.48-15.74-23.75-19-37.08-1.53-6.26-2.48-12.66,3.1-17.05,8.62-6.8,24.57-7.4,34.69-9.3a174.83,174.83,0,0,0,38.21-11.8c6.47-2.84,13.25-7,20.34-7.2,13.12-.44,17.82,16.14,19.51,26.65,4.91,30.64.47,63.86.89,94.88a764.1,764.1,0,0,0,19.25,161.87c10,43.28,31.42,83.63,52.24,122.63,9.19,17.2,18.67,34.25,27.5,51.65C888.27,2222,894.92,2234.05,897.69,2246.48Z"/><path class="cls-2" d="M642.26,1648.53c-1.7-8.91,1.37-19.73,11.64-20.89,6.33-.71,13.13,1,19.49,1.72a168,168,0,0,0,37.32-.3c10.23-1.21,20.63-3.45,30.94-4.64,13-1.51,18.59,8.39,20.12,20.11,3.08,23.62-2.07,49-13,70.37-6.38,12.51-18.34,32.32-33.9,33.13-16.84.88-33.26-23.16-41.93-35.25C659.37,1693.79,646.68,1671.71,642.26,1648.53Z"/><path class="cls-2" d="M1026.66,2193.9c5.76.58,11.9-.41,17.51.13,8.71.84,11.52,14.26,12.32,21.48,4.17,37.87-14.34,94.44-62.1,84.18-36.22-7.78-59.84-38.29-67-73.58-8.1-40-5.37-81.57-4.29-122.1,1.63-60.86.77-121.64-7.63-181.83-2.18-15.55-3.24-34.38-10.52-48.75-3.22-6.37-7.74-9.35-14.87-9.4-11.34-.07-22.79,2.41-34.14,2.26-10-.14-17.82-8.35-19.38-17.92-2.77-17.07,1.56-34.13,5.79-50.63,7.82-30.52,15.28-61,20.89-92,3.74-20.57,7.06-41.59,13.33-61.58,2.34-7.47,6.32-22.49,15.95-23.32,10.41-.88,14.26,12,15.07,20.21,3.22,32.89-.78,66.47,2.6,99.14,1.11,10.78,4.68,23.75,17.75,23.4,18.21-.49,36.48-2.52,54.7-2.92,17.26-.37,20.05,14.9,21.23,29.19,1.77,21.32,5.53,45.11,1.08,66.38-2.28,10.88-8.37,17.69-19.91,17.52-14.1-.21-26-10.11-40-10.83-15.72-.81-14,18.68-12.76,29,8.64,74.44,20.07,152.08,42.74,224.74C982.46,2140.36,996.29,2190.81,1026.66,2193.9Z"/><path class="cls-2" d="M1194.11,2206.16c6.13,0,12.48-1.57,18.49-1.62,9.08-.07,10.69,14.24,10.78,21,.57,41.2-26.17,100.8-75,96.75-38.18-3.15-60-33.9-63.57-70.19-4.35-43.79,3.16-88.31,8.37-131.73,7.69-64.09,12.59-128.39,8.78-192.73-1-16.13-.47-35.89-7-51.18-2.92-6.8-7.69-9.75-15-9.74-12.13,0-24.34,2.74-36.51,2.71-10.53,0-18.3-8.79-19.15-18.94-1.56-18.53,4.48-36.54,10.24-53.91,10.62-32,20.88-64,29.17-96.72,5.44-21.42,10.5-43.3,18.51-64,3-7.77,8.27-23.21,18.53-23.6,11-.42,14.32,13,14.62,21.66,1.16,34.37-6.28,69.25-4.34,103.13.64,11.24,3,24.83,17.06,24.69,19.33-.2,38.81-2,58.15-2,18-.06,20.07,15.29,20.22,30.25.2,22,2.21,46.62-4.15,68-3.34,11.24-10.76,18.64-22.48,18.1-14-.64-27.16-10.41-41.42-11-16.23-.63-16.37,18.76-15.92,30.37,3,77,7.59,157.76,24.81,234.11C1152.35,2152.44,1162.89,2206.05,1194.11,2206.16Z"/><path class="cls-2" d="M1364.26,2287.33c-.73,8.34-2.61,23.33-13.39,24.17-13.1,1-27.08-.54-40.44.32-17,1.08-34.22,4.58-51.35,4.95-14.75.32-16.32-22.18-16.45-32-.16-12.44,4.75-25.58,8.59-37.53,6.45-20,13.81-39.74,20.75-59.58,15.81-45.22,32.46-92.83,33.7-141.15,1.86-73-9.81-145-31.62-214.6-7.92-25.29-17.17-50.11-25.9-75.13-5.37-15.39-12.15-32.1-12.28-48.63-.07-9.69,1.43-18.42,8.53-25.49,12.24-12.17,31.6-18.43,47-24.85,16.44-6.87,31-16.59,45.3-27.3,7.87-5.9,18.07-15.53,28.6-15.21,11.4.34,14.08,13.21,13.62,22.34-1.57,31.34-11.67,63-18.38,93.5-8.35,38-18,77.66-18.56,115.63-.07,4.92-.12,16,7.45,15.87,10.33-.23,20.83-11.75,28-18.2,13.36-12,26.08-24.69,39.42-36.72,25-22.59,59.1-54,95.37-52.73,38.72,1.41,39,42.21,35.62,71.55-3.86,33.71-14.46,66.69-23.67,99.41-11,39.16-20.8,78.71-25.88,118.94-6.53,51.68-9,105.31,1,157,3.54,18.3,14.43,40.66,11.18,59.57-4.09,23.74-27.08,32.3-48.09,36.49-16.35,3.26-34.35,1.13-44.61-13.46-13.06-18.56-11.61-45.26-9.67-66.47,4.38-47.85,21.71-93.13,42.37-136.46,16-33.52,37.26-68.25,41.74-105.7,5.92-49.51-36.69-102.06-87.43-102.42-26-.19-45.5,14.31-56.92,37.28-20.23,40.7-21.85,91.38-23.39,135.53-1.69,48.64,8.75,96.88,20.75,144.07C1353,2220.88,1367,2255.87,1364.26,2287.33Z"/><path class="cls-2" d="M1747.56,1782.07c22.66,1,46.32-8.14,69.35-7.29,30.67,1.14,31.18,47.73,30.14,69.66-1.86,39-11.51,78-23.3,115-22.72,71.41-54.76,140.6-97.21,202.65-22.94,33.54-53,76.43-92.74,91.39-33.51,12.6-52.71-16.35-61-45.1-8-27.85-9.76-57.49-9.88-86.33-.19-42.92,4.27-85.84,10.89-128.12a798.32,798.32,0,0,1,32.21-131.63c7.8-23.07,16.8-46.51,30.37-66.89,8.8-13.23,22.41-29.27,39.7-28.16C1700.29,1768.81,1723.83,1781,1747.56,1782.07Zm-73.1,77.61c-47-.1-63.19,44.09-69.49,83.5-7.89,49.23-7.51,105.61,15.65,151.4,15.94,31.53,44.58,50.86,80.38,40.87,37.54-10.48,60.49-53.81,71.49-88,12.76-39.66,17.93-85.45,1.4-124.87C1756.8,1881.8,1717.82,1859.77,1674.46,1859.68Z"/><path class="cls-2" d="M1902.47,1779.81c10.73-39,43.8-97.83,93.09-88.68,13.35,2.48,26.48,8.72,39.41,10.77,11.71,1.85,24.91-2.05,36.89-.08,8.08,1.33,7.07,9.9,5.26,15.61-4.88,15.39-14.88,30.83-25.84,43.62-7.05,8.22-18.23,21-29.73,20.31-9.07-.53-17.47-7.67-25.16-12.55-11.68-7.41-23.49-12.77-37.14-14.49-21.7-2.73-34.71,14.9-40.31,33.72-5.76,19.37-9.69,49.82,19.16,49.24,15.94-.32,32.28-5.09,47.71-9.19,11.3-3,23.5-7.8,35.24-8.43,10.67-.57,5.5,11.37,3.34,16.62-7,17-15.64,34.39-26.32,49.9-4.68,6.79-11.74,17.87-20.34,19.22-16.32,2.57-34.27-6.72-50.87-4.86-10.84,1.22-17.56,14.09-21.09,23.12-16.68,42.65-24.61,89.5-27.15,136.25-1.11,20.33.44,44-10.32,62.09-4.8,8.09-11.14,15.75-19.11,20.75-15,9.4-31.2,17.59-46.75,26.27-12.84,7.16-26.3,14.93-38.44,22s-5.76-13.66-4.47-17c13.52-34.9,37.29-68.33,56.34-101.42,25.73-44.69,53.26-90.24,70.34-138.79,8.5-24.16,10.36-47.91,9.12-73.45C1894,1832.76,1895.13,1806.42,1902.47,1779.81Z"/><path class="cls-2" d="M2010.33,2000.72c-4.75,14.22-10,26.59-20.77,37.26-6.24,6.2-12.76,12.21-19.55,17.8-13.68,11.27-27.9,22-42.15,32.52-11.76,8.71-24.64,17.5-35.4,26-10.59,8.39-2.47-7.56-1-10,41.24-66.77,104.14-123.29,142.1-193.43,9.83-18.17,14.25-36.47,15.59-57.08,1.47-22.49,4.93-43.39,13.47-64.26,14.21-34.72,49-77.7,91.62-68.77,11.81,2.48,23.52,8.1,35,10.25,10.54,2,22.71-.43,33.43,1.7,5.85,1.16,6.4,7.48,3.49,12-7,11-16.57,22.87-27.1,31.8-7.57,6.42-18.3,15.37-28.65,14.86-7.82-.39-14.92-5.86-21.6-9.78-10.34-6.06-20.76-10.38-32.47-11.85-18.63-2.34-32.37,10-39.41,26.41-6.94,16.17-12.76,39.59,13,38.51,26.06-1.08,51.67-11.92,76.31-14.92,8.85-1.08,3.56,8.59,1.22,11.92-8.82,12.55-18.16,25.4-29.1,36.51-5.51,5.59-12.5,13.26-20.3,14.89-14.3,3-30.06-2.29-44.6.07"/><path class="cls-2" d="M827.35,187.22l.86,42c.07,3.21,5.07,3.23,5,0l-.86-42c-.07-3.22-5.07-3.23-5,0Z"/><path class="cls-2" d="M815.15,211.92l33.54-1.59c3.21-.15,3.22-5.15,0-5l-33.54,1.59c-3.2.15-3.22,5.15,0,5Z"/><path class="cls-2" d="M813.31,200.17l27.54,18.61,3.87,2.62c2.68,1.8,5.18-2.53,2.53-4.32L819.7,198.47l-3.87-2.61c-2.67-1.81-5.18,2.52-2.52,4.31Z"/><path class="cls-2" d="M822.27,221.76l17.88-19.91,2.54-2.83c2.14-2.38-1.38-5.93-3.54-3.53L821.27,215.4l-2.54,2.83c-2.14,2.39,1.38,5.93,3.54,3.53Z"/><path class="cls-2" d="M661.25,1368.54l.86,42c.07,3.21,5.07,3.22,5,0l-.86-42c-.07-3.21-5.07-3.22-5,0Z"/><path class="cls-2" d="M649.05,1393.25l33.54-1.59c3.2-.15,3.22-5.15,0-5l-33.54,1.59c-3.2.15-3.22,5.15,0,5Z"/><path class="cls-2" d="M647.21,1381.5l27.54,18.61,3.87,2.61c2.68,1.81,5.18-2.52,2.53-4.31L653.6,1379.8l-3.87-2.62c-2.67-1.8-5.18,2.53-2.52,4.32Z"/><path class="cls-2" d="M656.17,1403.09l17.88-19.91,2.54-2.83c2.14-2.39-1.38-5.93-3.54-3.53l-17.88,19.91-2.54,2.83c-2.14,2.38,1.38,5.93,3.54,3.53Z"/><path class="cls-2" d="M908.06,2295.79l.86,42c.07,3.21,5.07,3.22,5,0l-.86-42c-.07-3.21-5.07-3.22-5,0Z"/><path class="cls-2" d="M895.86,2320.5l33.54-1.59c3.21-.15,3.23-5.15,0-5l-33.54,1.59c-3.2.15-3.22,5.15,0,5Z"/><path class="cls-2" d="M894,2308.75l27.55,18.61,3.87,2.61c2.67,1.81,5.17-2.52,2.52-4.31l-27.55-18.61-3.87-2.62c-2.67-1.8-5.17,2.53-2.52,4.32Z"/><path class="cls-2" d="M903,2330.34l17.88-19.91,2.54-2.83c2.15-2.39-1.38-5.93-3.53-3.53L902,2324l-2.54,2.83c-2.14,2.38,1.38,5.93,3.54,3.53Z"/><path class="cls-2" d="M2047.9,2074.78l.86,42c.07,3.22,5.07,3.23,5,0l-.86-42c-.07-3.21-5.07-3.23-5,0Z"/><path class="cls-2" d="M2035.7,2099.48l33.54-1.58c3.21-.15,3.22-5.15,0-5l-33.54,1.58c-3.2.15-3.22,5.15,0,5Z"/><path class="cls-2" d="M2033.86,2087.74l27.54,18.6,3.87,2.62c2.68,1.8,5.18-2.52,2.53-4.32L2040.25,2086l-3.87-2.61c-2.67-1.81-5.18,2.52-2.52,4.32Z"/><path class="cls-2" d="M2042.82,2109.33l17.88-19.92,2.54-2.82c2.14-2.39-1.38-5.94-3.54-3.54L2041.82,2103l-2.54,2.82c-2.14,2.39,1.38,5.94,3.54,3.54Z"/><path class="cls-2" d="M2349.27,1030.42l.87,42c.06,3.22,5.06,3.23,5,0l-.87-42c-.06-3.22-5.06-3.23-5,0Z"/><path class="cls-2" d="M2337.08,1055.12l33.54-1.58c3.2-.15,3.22-5.16,0-5l-33.54,1.58c-3.2.15-3.22,5.15,0,5Z"/><path class="cls-2" d="M2335.24,1043.38l27.54,18.6,3.87,2.62c2.67,1.8,5.18-2.53,2.52-4.32l-27.54-18.61-3.87-2.61c-2.67-1.81-5.18,2.52-2.52,4.32Z"/><path class="cls-2" d="M2344.19,1065l17.89-19.92,2.54-2.82c2.14-2.39-1.38-5.94-3.54-3.54l-17.88,19.92-2.54,2.82c-2.15,2.39,1.38,5.94,3.53,3.54Z"/><path class="cls-2" d="M175.83,740.85l.86,42c.07,3.21,5.07,3.23,5,0l-.86-42c-.07-3.22-5.07-3.23-5,0Z"/><path class="cls-2" d="M163.63,765.55,197.17,764c3.21-.15,3.23-5.15,0-5l-33.54,1.59c-3.2.15-3.22,5.15,0,5Z"/><path class="cls-2" d="M161.79,753.8l27.55,18.61,3.87,2.62c2.67,1.8,5.17-2.53,2.52-4.32L168.18,752.1l-3.87-2.61c-2.67-1.81-5.17,2.52-2.52,4.31Z"/><path class="cls-2" d="M170.75,775.39l17.88-19.91,2.54-2.83c2.15-2.38-1.38-5.93-3.53-3.53L169.75,769l-2.54,2.83c-2.14,2.39,1.38,5.93,3.54,3.53Z"/><path class="cls-2" d="M1609.75,208.2l.86,42c.07,3.22,5.07,3.23,5,0l-.86-42c-.07-3.21-5.07-3.23-5,0Z"/><path class="cls-2" d="M1597.55,232.9l33.54-1.58c3.21-.15,3.22-5.15,0-5l-33.54,1.58c-3.2.15-3.22,5.15,0,5Z"/><path class="cls-2" d="M1595.71,221.16l27.55,18.6,3.87,2.62c2.67,1.81,5.17-2.52,2.52-4.32l-27.55-18.61-3.87-2.61c-2.67-1.81-5.18,2.52-2.52,4.32Z"/><path class="cls-2" d="M1604.67,242.75l17.88-19.92,2.54-2.82c2.15-2.39-1.38-5.94-3.53-3.54l-17.89,19.92-2.54,2.82c-2.14,2.39,1.38,5.94,3.54,3.54Z"/><path class="cls-2" d="M2351,1472.23l.9,17.76.13,2.56a2.55,2.55,0,0,0,2.5,2.5,2.53,2.53,0,0,0,2.5-2.5l-.9-17.77-.13-2.55a2.55,2.55,0,0,0-2.5-2.5,2.52,2.52,0,0,0-2.5,2.5Z"/><path class="cls-2" d="M2343.29,1485.78l18.46-1.21,2.66-.17a2.56,2.56,0,0,0,2.5-2.5,2.51,2.51,0,0,0-2.5-2.5l-18.47,1.21-2.65.17a2.56,2.56,0,0,0-2.5,2.5,2.51,2.51,0,0,0,2.5,2.5Z"/><path class="cls-2" d="M2423.08,1358.38l.9,17.77.13,2.55a2.55,2.55,0,0,0,2.5,2.5,2.52,2.52,0,0,0,2.5-2.5l-.9-17.76-.13-2.56a2.55,2.55,0,0,0-2.5-2.5,2.52,2.52,0,0,0-2.5,2.5Z"/><path class="cls-2" d="M2415.39,1371.94l18.47-1.21,2.66-.17a2.56,2.56,0,0,0,2.5-2.5,2.52,2.52,0,0,0-2.5-2.5l-18.47,1.21-2.66.17a2.56,2.56,0,0,0-2.5,2.5,2.52,2.52,0,0,0,2.5,2.5Z"/><path class="cls-2" d="M617.52,1326.64l.9,17.77.13,2.56a2.56,2.56,0,0,0,2.5,2.5,2.53,2.53,0,0,0,2.5-2.5l-.9-17.77-.13-2.56a2.55,2.55,0,0,0-2.5-2.5,2.53,2.53,0,0,0-2.5,2.5Z"/><path class="cls-2" d="M609.83,1340.2,628.3,1339l2.66-.17a2.56,2.56,0,0,0,2.5-2.5,2.51,2.51,0,0,0-2.5-2.5L612.49,1335l-2.66.17a2.57,2.57,0,0,0-2.5,2.5,2.52,2.52,0,0,0,2.5,2.5Z"/><path class="cls-2" d="M2109.73,2001.7l.9,17.76.13,2.56a2.55,2.55,0,0,0,2.5,2.5,2.52,2.52,0,0,0,2.5-2.5l-.9-17.76-.13-2.56a2.55,2.55,0,0,0-2.5-2.5,2.53,2.53,0,0,0-2.5,2.5Z"/><path class="cls-2" d="M2102,2015.26l18.47-1.21,2.66-.18a2.5,2.5,0,0,0,0-5l-18.47,1.22-2.66.17a2.57,2.57,0,0,0-2.5,2.5,2.53,2.53,0,0,0,2.5,2.5Z"/><path class="cls-2" d="M2075.5,2011.86l.91,17.77.13,2.55a2.55,2.55,0,0,0,2.5,2.5,2.52,2.52,0,0,0,2.5-2.5l-.91-17.76-.13-2.56a2.55,2.55,0,0,0-2.5-2.5,2.53,2.53,0,0,0-2.5,2.5Z"/><path class="cls-2" d="M2067.82,2025.42l18.47-1.21,2.66-.18a2.5,2.5,0,0,0,0-5l-18.47,1.22-2.66.17a2.56,2.56,0,0,0-2.5,2.5,2.53,2.53,0,0,0,2.5,2.5Z"/><path class="cls-2" d="M1293.65,2374.41l.9,17.77.13,2.55a2.55,2.55,0,0,0,2.5,2.5,2.52,2.52,0,0,0,2.5-2.5l-.9-17.76-.13-2.56a2.55,2.55,0,0,0-2.5-2.5,2.53,2.53,0,0,0-2.5,2.5Z"/><path class="cls-2" d="M1286,2388l18.47-1.21,2.65-.17a2.56,2.56,0,0,0,2.5-2.5,2.51,2.51,0,0,0-2.5-2.5l-18.46,1.21-2.66.17a2.56,2.56,0,0,0-2.5,2.5,2.51,2.51,0,0,0,2.5,2.5Z"/><path class="cls-2" d="M1366.44,2415l.9,17.76.13,2.56a2.55,2.55,0,0,0,2.5,2.5,2.53,2.53,0,0,0,2.5-2.5l-.9-17.77-.13-2.55a2.55,2.55,0,0,0-2.5-2.5,2.51,2.51,0,0,0-2.5,2.5Z"/><path class="cls-2" d="M1358.75,2428.56l18.47-1.21,2.66-.18a2.56,2.56,0,0,0,2.5-2.5,2.53,2.53,0,0,0-2.5-2.5l-18.47,1.21-2.66.18a2.5,2.5,0,0,0,0,5Z"/><path class="cls-2" d="M1879.33,287.83l.91,17.76.13,2.56a2.55,2.55,0,0,0,2.5,2.5,2.52,2.52,0,0,0,2.5-2.5l-.91-17.76-.13-2.56a2.55,2.55,0,0,0-2.5-2.5,2.53,2.53,0,0,0-2.5,2.5Z"/><path class="cls-2" d="M1871.65,301.39l18.47-1.21,2.66-.18a2.5,2.5,0,0,0,0-5l-18.47,1.22-2.66.17a2.56,2.56,0,0,0-2.5,2.5,2.53,2.53,0,0,0,2.5,2.5Z"/><path class="cls-2" d="M1844.43,241l.91,17.76.13,2.56a2.55,2.55,0,0,0,2.5,2.5,2.52,2.52,0,0,0,2.5-2.5l-.91-17.76-.13-2.56a2.55,2.55,0,0,0-2.5-2.5,2.52,2.52,0,0,0-2.5,2.5Z"/><path class="cls-2" d="M1836.75,254.54l18.47-1.21,2.66-.18a2.5,2.5,0,0,0,0-5l-18.47,1.21-2.66.18a2.55,2.55,0,0,0-2.5,2.5,2.53,2.53,0,0,0,2.5,2.5Z"/><path class="cls-2" d="M204.86,700.38l.9,17.77.13,2.55a2.55,2.55,0,0,0,2.5,2.5,2.52,2.52,0,0,0,2.5-2.5l-.9-17.76-.13-2.56a2.55,2.55,0,0,0-2.5-2.5,2.53,2.53,0,0,0-2.5,2.5Z"/><path class="cls-2" d="M197.17,713.94l18.47-1.21,2.66-.17a2.56,2.56,0,0,0,2.5-2.5,2.51,2.51,0,0,0-2.5-2.5l-18.47,1.21-2.66.17a2.57,2.57,0,0,0-2.5,2.5,2.52,2.52,0,0,0,2.5,2.5Z"/><path class="cls-2" d="M856.37,230.82l.91,17.76.13,2.56a2.55,2.55,0,0,0,2.5,2.5,2.52,2.52,0,0,0,2.5-2.5l-.91-17.76-.13-2.56a2.5,2.5,0,0,0-5,0Z"/><path class="cls-2" d="M848.69,244.38l18.47-1.21,2.66-.18a2.55,2.55,0,0,0,2.5-2.5,2.53,2.53,0,0,0-2.5-2.5l-18.47,1.21-2.66.18a2.55,2.55,0,0,0-2.5,2.5,2.53,2.53,0,0,0,2.5,2.5Z"/><path class="cls-3" d="M1254.93,101.52c-1.66-6.22-4.91-25.25-11.57-34.71a78.28,78.28,0,0,0-26-23.3,56.81,56.81,0,0,0,22.67-18,56.61,56.61,0,0,0,10.12-23,67.79,67.79,0,0,0,15.23,25.74A67.61,67.61,0,0,0,1287,43.51a83.08,83.08,0,0,0-21,22.19C1259.47,75.74,1256.44,95.13,1254.93,101.52Z"/><path class="cls-3" d="M2458.1,1262.83c-1.66-6.21-2.16-22.22-8.82-31.68a78.34,78.34,0,0,0-26-23.29,56.9,56.9,0,0,0,22.67-18c6.73-9,8.21-18,9.17-23,1.86,5.75,7,16,16.18,25.74a67.7,67.7,0,0,0,21.58,15.27,82.92,82.92,0,0,0-21,22.19C2465.39,1240.09,2459.61,1256.45,2458.1,1262.83Z"/><path class="cls-3" d="M1250.45,2518c-1.66-6.21-4.91-25.25-11.57-34.71-9-12.73-19.91-17.8-26.18-21.29,4.79-2.1,14.83-9.21,22.87-20a56.61,56.61,0,0,0,10.12-23,67.79,67.79,0,0,0,15.23,25.74c7.93,8.38,16.31,14.93,21.59,17.28-5.55,4-13.88,9.08-21,20.18C1255,2492.25,1252,2511.64,1250.45,2518Z"/><path class="cls-3" d="M37.3,1271.94c-1.66-6.22-2.15-17.88-8.82-27.34a78.51,78.51,0,0,0-26-23.3,56.93,56.93,0,0,0,22.68-18c6.72-9,13.26-18,14.22-23,1.86,5.75,1.89,16,11.12,25.74a67.61,67.61,0,0,0,21.59,15.27,83,83,0,0,0-21,22.2C44.6,1253.53,38.81,1265.55,37.3,1271.94Z"/></svg>